<svg width="19" height="22" viewBox="0 0 19 22" fill="none" xmlns="http://www.w3.org/2000/svg">
<path fill-rule="evenodd" clip-rule="evenodd" d="M19 6H0V17.9467C0 20.1853 1.79584 22 4.01111 22H14.9889C17.2042 22 19 20.1853 19 17.9467V6ZM4.50825 21C3.12298 21 2 19.8623 2 18.4588V8H18V18.4588C18 19.8623 16.877 21 15.4917 21H4.50825Z" fill="#262626"/>
<path d="M6.51194 11.2439V5.00117C6.51194 3.07432 8.0736 1.51229 10 1.51229C11.9264 1.51229 13.4881 3.07432 13.4881 5.00117V11.2439C13.4881 11.6615 13.8265 12 14.244 12C14.6615 12 15 11.6615 15 11.2439V5.00117C15 2.2391 12.7614 0 10 0C7.23858 0 5 2.2391 5 5.00117V11.2439C5 11.6615 5.33846 12 5.75597 12C6.17348 12 6.51194 11.6615 6.51194 11.2439Z" fill="#262626"/>
</svg>
