<svg width="59" height="13" viewBox="0 0 59 13" fill="none" xmlns="http://www.w3.org/2000/svg">
<path d="M9.42307 0.528848V7.16346C9.42307 9.375 8.46154 10.2885 6.15384 10.2885C3.84615 10.2885 2.88461 9.375 2.88461 7.16346V0.240387H0.673075C0.528844 0.240387 0.384613 0.384618 0.384613 0.528848V7.25962C0.384613 10.9615 2.74038 12.2596 6.15384 12.2596C9.56731 12.2596 11.9231 10.9615 11.9231 7.25962V0.240387H9.71154C9.56731 0.240387 9.42307 0.336541 9.42307 0.528848Z" fill="black"/>
<path d="M41.5865 2.16346C41.7789 2.16346 41.875 2.11539 41.9231 1.97116L42.5481 0.384618C42.5962 0.288464 42.5481 0.240387 42.4519 0.240387H33.5096C32.6923 0.240387 32.3558 0.480772 32.3558 1.05769V11.3462C32.3558 11.8269 32.5962 12.0673 33.2212 12.0673H41.5385C41.7308 12.0673 41.8269 12.0192 41.875 11.875L42.5 10.2885C42.5481 10.1923 42.5 10.1442 42.4039 10.1442H34.8077V8.02885C34.8077 7.30769 35.1923 6.97116 36.2981 6.97116H39.6154C39.8077 6.97116 39.9039 6.92308 39.9519 6.77885L40.5769 5.24039C40.625 5.14423 40.5769 5.09616 40.4808 5.09616H34.8558V2.11539H41.5865V2.16346Z" fill="black"/>
<path fill-rule="evenodd" clip-rule="evenodd" d="M25.8654 5.81732C26.8269 5.28845 27.2115 4.375 27.2115 3.22116C27.2115 0.625 25.0961 0.240387 22.8846 0.240387H17.8365C17.0192 0.240387 16.6827 0.480774 16.6827 1.05771V11.3462C16.6827 11.8269 16.9231 12.0673 17.5481 12.0673H23.75C26.1057 12.0673 27.7404 11.1538 27.7404 8.79807C27.7885 7.35577 27.2115 6.15384 25.8654 5.81732ZM19.1827 2.11539H23.0769C24.375 2.11539 24.7596 2.59616 24.7596 3.60577C24.7596 4.61539 24.375 5.09616 23.0769 5.09616H19.1827V2.11539ZM19.1827 10.1442H23.5577C24.9519 10.1442 25.3365 9.66345 25.3365 8.55768C25.3365 7.4519 24.9519 6.92307 23.5577 6.92307H20.6731C19.5673 6.92307 19.1827 7.25961 19.1827 7.98074V10.1442Z" fill="black"/>
<path fill-rule="evenodd" clip-rule="evenodd" d="M55.3846 7.30771L58.0288 11.875C58.0769 11.9231 58.0769 12.0673 57.9808 12.0673H55.7212C55.5288 12.0673 55.4808 12.0192 55.3846 11.875L52.9808 7.54807H50.8173C49.7115 7.54807 49.3269 7.88461 49.3269 8.60577V12.0673H47.1635C47.0192 12.0673 46.875 11.9231 46.875 11.7788V1.05771C46.875 0.480774 47.2115 0.240387 48.0288 0.240387H53.0769C56.0096 0.240387 57.7885 1.00961 57.7885 3.89423C57.7885 6.10577 56.6827 6.97116 55.3846 7.30771ZM49.2788 5.72116H53.4135C54.9519 5.72116 55.2885 5.14423 55.2885 3.89423C55.2885 2.69232 54.9519 2.11539 53.4135 2.11539H49.2788V5.72116Z" fill="black"/>
</svg>
