<svg width="53" height="14" viewBox="0 0 53 14" fill="none" xmlns="http://www.w3.org/2000/svg">
<path d="M9.4423 12.0096L9.39423 13.0673H0.644226V1.24039H9.05769L9.10576 2.34616H1.84615V6.43269H8.09615V7.39423H1.84615V12.0096H9.4423Z" fill="#57AD56" stroke="#57AD56" stroke-width="0.25"/>
<path fill-rule="evenodd" clip-rule="evenodd" d="M16.7019 9.99039H23.6731L25.0192 13.0673H26.3654L20.9327 1.24039H19.5385L14.0577 13.0673H15.3557L16.7019 9.99039ZM17.1346 8.98077L19.6827 3.25964L20.1635 2.05771H20.2115L20.6923 3.25964L23.1923 8.98077H17.1346Z" fill="#57AD56"/>
<path d="M23.6731 9.99039L23.7876 9.94028L23.7548 9.86539H23.6731V9.99039ZM16.7019 9.99039V9.86539H16.6202L16.5874 9.94028L16.7019 9.99039ZM25.0192 13.0673L24.9047 13.1174L24.9375 13.1923H25.0192V13.0673ZM26.3654 13.0673V13.1923H26.5603L26.4789 13.0151L26.3654 13.0673ZM20.9327 1.24039L21.0463 1.18821L21.0128 1.11539H20.9327V1.24039ZM19.5385 1.24039V1.11539H19.4586L19.425 1.18783L19.5385 1.24039ZM14.0577 13.0673L13.9443 13.0148L13.862 13.1923H14.0577V13.0673ZM15.3557 13.0673V13.1923H15.4375L15.4703 13.1174L15.3557 13.0673ZM19.6827 3.25964L19.7969 3.31054L19.7987 3.30607L19.6827 3.25964ZM17.1346 8.98077L17.0204 8.92992L16.9421 9.10577H17.1346V8.98077ZM20.1635 2.05771V1.93271H20.0788L20.0474 2.01128L20.1635 2.05771ZM20.2115 2.05771L20.3276 2.01129L20.2962 1.93271H20.2115V2.05771ZM20.6923 3.25964L20.5762 3.30609L20.5777 3.3097L20.6923 3.25964ZM23.1923 8.98077V9.10577H23.3833L23.3068 8.93072L23.1923 8.98077ZM23.6731 9.86539H16.7019V10.1154H23.6731V9.86539ZM25.1337 13.0172L23.7876 9.94028L23.5585 10.0405L24.9047 13.1174L25.1337 13.0172ZM26.3654 12.9423H25.0192V13.1923H26.3654V12.9423ZM20.8191 1.29256L26.2518 13.1195L26.4789 13.0151L21.0463 1.18821L20.8191 1.29256ZM19.5385 1.36539H20.9327V1.11539H19.5385V1.36539ZM14.1711 13.1199L19.6519 1.29294L19.425 1.18783L13.9443 13.0148L14.1711 13.1199ZM15.3557 12.9423H14.0577V13.1923H15.3557V12.9423ZM16.5874 9.94028L15.2412 13.0172L15.4703 13.1174L16.8164 10.0405L16.5874 9.94028ZM19.5685 3.20879L17.0204 8.92992L17.2488 9.03163L19.7969 3.3105L19.5685 3.20879ZM20.0474 2.01128L19.5666 3.21322L19.7987 3.30607L20.2795 2.10413L20.0474 2.01128ZM20.2115 1.93271H20.1635V2.18271H20.2115V1.93271ZM20.8084 3.21322L20.3276 2.01129L20.0955 2.10413L20.5762 3.30606L20.8084 3.21322ZM23.3068 8.93072L20.8068 3.20959L20.5777 3.3097L23.0777 9.03083L23.3068 8.93072ZM17.1346 9.10577H23.1923V8.85577H17.1346V9.10577Z" fill="#57AD56"/>
<path d="M35.0192 2.34616V13.0673H33.8173V2.34616H29.3942L29.4423 1.24039H39.4904V2.34616H35.0192Z" fill="#57AD56" stroke="#57AD56" stroke-width="0.25"/>
<path d="M48.0481 13.3077C46.4134 13.3077 45.1154 12.9231 44.0577 12.2981L44.25 11.2404C45.3558 11.8654 46.6058 12.25 48.0961 12.25C50.3077 12.25 51.4615 11.2404 51.4615 9.79808C51.4615 6.67308 44.25 8.30769 44.25 4.26923C44.25 2.53846 45.5481 1 48.5769 1C49.9711 1 51.2211 1.24038 52.2308 1.72115L52.0384 2.73077C50.9327 2.29808 49.875 2.05769 48.625 2.05769C46.2692 2.05769 45.4038 3.11538 45.4038 4.17308C45.4038 7.15385 52.6154 5.47115 52.6154 9.70192C52.5673 11.8173 51.0288 13.3077 48.0481 13.3077Z" fill="#57AD56" stroke="#57AD56" stroke-width="0.25"/>
</svg>
