<svg width="192" height="22" viewBox="0 0 192 22" fill="none" xmlns="http://www.w3.org/2000/svg">
<g id="white-logo">
<g id="XMLID_234_">
<path id="XMLID_243_" d="M14.1 1.48V12.52C14.1 16.2 12.6 17.72 9 17.72C5.4 17.72 3.9 16.2 3.9 12.52V1H0.45C0.225 1 0 1.24 0 1.48V12.68C0 18.84 3.675 21 9 21C14.325 21 18 18.84 18 12.68V1H14.55C14.325 1 14.1 1.16 14.1 1.48Z" fill="white"/>
<path id="XMLID_242_" d="M65.4638 4.25203C65.7651 4.25203 65.9158 4.17073 65.9911 3.92683L66.9704 1.2439C67.0458 1.0813 66.9704 1 66.8198 1H52.808C51.5273 1 51 1.4065 51 2.38211V19.7805C51 20.5935 51.3767 21 52.356 21H65.3885C65.6898 21 65.8405 20.9187 65.9158 20.6748L66.8951 17.9919C66.9704 17.8293 66.8951 17.748 66.7445 17.748H54.8419V14.1707C54.8419 12.9512 55.4446 12.3821 57.1772 12.3821H62.3752C62.6765 12.3821 62.8272 12.3008 62.9025 12.0569L63.8818 9.45529C63.9572 9.29268 63.8818 9.21138 63.7312 9.21138H54.9173V4.17073H65.4638V4.25203Z" fill="white"/>
<path id="XMLID_238_" fill-rule="evenodd" clip-rule="evenodd" d="M40.9441 10.4309C42.5089 9.53659 43.1348 7.99187 43.1348 6.04065C43.1348 1.65041 39.6922 1 36.0931 1H27.8778C26.5477 1 26 1.4065 26 2.38211V19.7805C26 20.5935 26.3912 21 27.4083 21H37.5015C41.3353 21 43.9955 19.4553 43.9955 15.4715C44.0737 13.0325 43.1348 11 40.9441 10.4309ZM30 4H36.2845C38.3793 4 39 4.80645 39 6.5C39 8.19355 38.3793 9 36.2845 9H30V4ZM30 17H37.1094C39.375 17 40 16.2537 40 14.5373C40 12.8209 39.375 12 37.1094 12H32.4219C30.625 12 30 12.5224 30 13.6418V17Z" fill="white"/>
<path id="XMLID_235_" fill-rule="evenodd" clip-rule="evenodd" d="M87.694 12.9512L91.9492 20.6748C92.0265 20.7561 92.0265 21 91.8718 21H88.2356C87.9261 21 87.8487 20.9187 87.694 20.6748L83.8256 13.3577H80.3441C78.5647 13.3577 77.9457 13.9268 77.9457 15.1463V21H74.4642C74.2321 21 74 20.7561 74 20.5122V2.38211C74 1.4065 74.5416 1 75.8568 1H83.9804C88.6998 1 91.5623 2.30081 91.5623 7.17886C91.5623 10.9187 89.7829 12.3821 87.694 12.9512ZM78 10H84.88C87.44 10 88 9.04 88 6.96C88 4.96 87.44 4 84.88 4H78V10Z" fill="white"/>
</g>
<g id="XMLID_224_">
<path id="XMLID_232_" d="M122 18.3008L121.923 20H108V1H121.388L121.464 2.77642H109.913V9.34146H119.858V10.8862H109.913V18.3008H122Z" fill="#57AD56" stroke="#57AD56" stroke-width="0.25"/>
<g id="XMLID_229_">
<path fill-rule="evenodd" clip-rule="evenodd" d="M133.297 15.0569H144.625L146.812 20H149L140.172 1H137.906L129 20H131.109L133.297 15.0569ZM134 13L138.206 3.90972L139 2H139.079L139.873 3.90972L144 13H134Z" fill="#57AD56"/>
<path d="M144.625 15.0569L144.739 15.0063L144.706 14.9319H144.625V15.0569ZM133.297 15.0569V14.9319H133.215L133.183 15.0063L133.297 15.0569ZM146.812 20L146.698 20.0506L146.731 20.125H146.812V20ZM149 20V20.125H149.196L149.113 19.9473L149 20ZM140.172 1L140.285 0.947328L140.252 0.875H140.172V1ZM137.906 1V0.875H137.827L137.793 0.946946L137.906 1ZM129 20L128.887 19.9469L128.803 20.125H129V20ZM131.109 20V20.125H131.191L131.224 20.0506L131.109 20ZM138.206 3.90972L138.32 3.96226L138.322 3.95769L138.206 3.90972ZM134 13L133.887 12.9475L133.804 13.125H134V13ZM139 2V1.875H138.917L138.885 1.95203L139 2ZM139.079 2L139.195 1.95203L139.163 1.875H139.079V2ZM139.873 3.90972L139.758 3.95772L139.759 3.9614L139.873 3.90972ZM144 13V13.125H144.194L144.114 12.9483L144 13ZM144.625 14.9319H133.297V15.1819H144.625V14.9319ZM146.927 19.9494L144.739 15.0063L144.511 15.1075L146.698 20.0506L146.927 19.9494ZM149 19.875H146.812V20.125H149V19.875ZM140.059 1.05267L148.887 20.0527L149.113 19.9473L140.285 0.947328L140.059 1.05267ZM137.906 1.125H140.172V0.875H137.906V1.125ZM129.113 20.0531L138.019 1.05305L137.793 0.946946L128.887 19.9469L129.113 20.0531ZM131.109 19.875H129V20.125H131.109V19.875ZM133.183 15.0063L130.995 19.9494L131.224 20.0506L133.411 15.1075L133.183 15.0063ZM138.093 3.85723L133.887 12.9475L134.113 13.0525L138.32 3.96222L138.093 3.85723ZM138.885 1.95203L138.091 3.86175L138.322 3.95769L139.115 2.04797L138.885 1.95203ZM139.079 1.875H139V2.125H139.079V1.875ZM139.988 3.86175L139.195 1.95203L138.964 2.04797L139.758 3.95769L139.988 3.86175ZM144.114 12.9483L139.987 3.85805L139.759 3.9614L143.886 13.0517L144.114 12.9483ZM134 13.125H144V12.875H134V13.125Z" fill="#57AD56"/>
</g>
<path id="XMLID_227_" d="M162.914 2.77642V20H161.01V2.77642H154L154.076 1H170V2.77642H162.914Z" fill="#57AD56" stroke="#57AD56" stroke-width="0.25"/>
<path id="XMLID_225_" d="M183.528 21C180.854 21 178.73 20.375 177 19.3594L177.315 17.6406C179.124 18.6562 181.169 19.2812 183.607 19.2812C187.225 19.2812 189.112 17.6406 189.112 15.2969C189.112 10.2188 177.315 12.875 177.315 6.3125C177.315 3.5 179.438 1 184.393 1C186.674 1 188.719 1.39062 190.371 2.17188L190.056 3.8125C188.247 3.10938 186.517 2.71875 184.472 2.71875C180.618 2.71875 179.202 4.4375 179.202 6.15625C179.202 11 191 8.26562 191 15.1406C190.921 18.5781 188.404 21 183.528 21Z" fill="#57AD56" stroke="#57AD56" stroke-width="0.25"/>
</g>
</g>
</svg>
