<svg width="16" height="16" viewBox="0 0 16 16" fill="none" xmlns="http://www.w3.org/2000/svg">
<g id="world">
<path id="Shape" fill-rule="evenodd" clip-rule="evenodd" d="M8.48514 0.0248571C8.46344 0.0224065 8.44175 0.0196641 8.42005 0.0169202C8.3532 0.00846748 8.28623 0 8.21829 0C8.2042 0 8.19027 0.0018886 8.17637 0.00377293L8.17637 0.00377322L8.17637 0.00377359C8.16434 0.00540397 8.15235 0.00703099 8.14029 0.00742857C8.11852 0.00703038 8.09687 0.005399 8.07521 0.00376612C8.05024 0.00188406 8.02524 0 8 0C3.58886 0 0 3.58914 0 8C0 12.4114 3.58886 16 8 16C8.02536 16 8.05048 15.9982 8.07553 15.9964L8.07558 15.9964C8.09707 15.9948 8.1185 15.9933 8.14 15.9929C8.15219 15.9933 8.16425 15.9948 8.1763 15.9964L8.17633 15.9964C8.19027 15.9982 8.2042 16 8.21829 16C8.2898 16 8.36023 15.991 8.43058 15.982C8.44877 15.9796 8.46695 15.9773 8.48514 15.9751C12.6703 15.7226 16 12.2477 16 8C16 3.75229 12.6703 0.277714 8.48514 0.0248571ZM6 1C5.17015 1.96814 4.49598 3.35825 4.12582 5C2.97469 4.87373 2.28003 4.72677 2 4.65876C2.81349 2.9612 4.24769 1.64936 6 1ZM1.36456 6C1.12848 6.71848 1 7.48329 1 8.27652C1.00133 9.20839 1.18279 10.1319 1.53512 11C1.89518 10.9163 2.69754 10.756 4 10.6201C3.86188 9.87595 3.78062 9.09291 3.78062 8.27652C3.78132 7.65293 3.82715 7.03015 3.91777 6.41268C2.39946 6.25051 1.57912 6.0556 1.36456 6ZM2.00062 11.2578C2.39246 11.1902 3.09456 11.0878 4.13226 11C4.54048 12.2233 5.20457 13.2572 6 14C4.30767 13.4985 2.89014 12.5267 2 11.2578H2.00062ZM5 11.1061C5.58869 13.1332 7.02481 14.637 8 15V11C7.02481 11.0104 5.84646 11.0503 5 11.1061ZM7 9.87433C6.13119 9.88603 4.94874 9.93347 4.14248 10C4.03157 9.28846 4 8.53565 4 7.75913C4 7.1554 4.011 6.56769 4.07964 6C4.89835 6.069 6.13119 6.11859 7 6.13091V9.87402V9.87433ZM5 4.89779C5.83778 4.95097 7.06289 4.9904 8 5V4.99974V1C7.06289 1.3497 5.52322 2.87561 5 4.89779ZM14 5.59778C13.866 5.64956 13.3232 5.84004 12.2497 6C12.2415 5.94531 12.2331 5.8909 12.2245 5.83676C13.0252 5.74996 13.6053 5.65454 13.9926 5.57863C13.995 5.5849 13.9975 5.59119 14 5.59747V5.59778ZM13.9926 5.57863C13.3619 3.98623 12.3021 2.7101 11 2C11.551 2.96374 11.9778 4.28603 12.2245 5.83676C12.173 5.84235 12.1205 5.8479 12.0672 5.8534C12.2354 7.10612 12.2128 8.37235 12 9.62004L12.0003 9.61976C13.3614 9.75723 14.1356 9.92274 14.4436 10C14.7985 9.23238 15 8.39794 15 7.52282C14.9996 6.6578 14.8041 5.80106 14.4244 5L14.6044 5.43715C14.5798 5.44466 14.3854 5.50161 13.9926 5.57863ZM12 4.89659C11.4859 2.85626 9.93877 1.32187 9 1V5C9.93877 4.99043 11.1742 4.95088 12 4.89659ZM9 6.13408C9.87506 6.12209 11.1016 6.07135 11.916 6C11.9831 6.56769 12 7.15538 12 7.75967C12 8.53586 11.9737 9.28869 11.8652 10C11.0634 9.93173 9.87506 9.88252 9 9.87145V6.13408ZM9 11V14.9997V15C9.97593 14.6654 11.4209 13.1545 12 11.108C11.164 11.051 9.97593 11.0104 9 11ZM11 14C11.5466 13.2344 11.9819 12.2069 12.2505 11C13.1488 11.1042 13.7147 11.2255 14 11.298C13.3131 12.4992 12.2614 13.4464 11 14Z" fill="white"/>
</g>
</svg>
